<?xml version="1.0" standalone="no"?>
<!DOCTYPE svg PUBLIC "-//W3C//DTD SVG 20010904//EN"
 "http://www.w3.org/TR/2001/REC-SVG-20010904/DTD/svg10.dtd">
<svg version="1.0" xmlns="http://www.w3.org/2000/svg"
 width="1080.000000pt" height="1080.000000pt" viewBox="0 0 1080.000000 1080.000000"
 preserveAspectRatio="xMidYMid meet">

<g transform="translate(0.000000,1080.000000) scale(0.100000,-0.100000)"
fill="#000000" stroke="none">
<path d="M4632 6375 c-211 -74 -312 -211 -312 -426 l0 -89 -60 0 c-33 0 -60
-3 -60 -8 0 -4 26 -22 59 -40 57 -31 58 -33 65 -84 3 -29 6 -237 6 -463 l0
-410 -52 -47 -53 -47 288 -1 c158 0 287 3 287 8 0 4 -22 25 -50 47 l-50 40 0
468 c0 443 1 469 18 462 9 -3 65 -9 125 -12 l107 -6 0 47 0 46 -124 0 -124 0
-57 62 c-110 119 -176 242 -161 302 22 90 123 86 238 -10 62 -52 142 -153 179
-225 16 -33 33 -59 37 -59 13 1 183 291 180 308 -5 26 -119 107 -185 132 -37
14 -89 24 -143 27 -72 3 -96 0 -158 -22z"/>
<path d="M2870 6324 c-96 -30 -205 -63 -242 -75 -38 -11 -68 -24 -68 -28 0 -5
29 -19 65 -32 l66 -23 -3 -150 -3 -149 -75 2 c-238 6 -450 -148 -526 -382 -35
-108 -44 -294 -20 -407 42 -199 174 -332 354 -357 l44 -6 123 125 123 124 6
-59 c14 -132 67 -191 168 -184 71 4 119 35 190 121 75 91 152 205 143 214 -3
4 -38 -10 -76 -30 -37 -21 -71 -38 -74 -38 -3 0 -5 313 -5 695 0 382 -3 695
-7 694 -5 0 -87 -25 -183 -55z m-251 -536 c13 -11 33 -42 45 -67 20 -44 21
-64 24 -384 l3 -337 -43 -20 c-65 -30 -94 -26 -138 18 -69 68 -95 216 -87 491
5 192 17 248 64 295 34 34 98 36 132 4z"/>
<path d="M7296 6040 l-156 -180 -80 0 c-44 0 -80 -3 -80 -7 0 -5 26 -23 59
-42 l58 -33 6 -412 c7 -447 11 -485 64 -560 53 -75 177 -109 259 -70 67 32
290 261 271 280 -2 3 -22 -4 -43 -15 -80 -43 -161 -13 -184 67 -11 42 -13 354
-3 570 l6 142 109 -6 108 -7 0 46 0 47 -110 0 -110 0 0 174 c0 96 -4 177 -9
180 -4 3 -79 -75 -165 -174z"/>
<path d="M3715 5884 c-243 -62 -399 -191 -466 -384 -31 -88 -38 -269 -15 -361
63 -248 274 -412 531 -414 87 0 92 1 140 34 61 43 306 281 300 292 -3 4 -33
-4 -66 -17 -79 -32 -140 -39 -214 -24 -83 17 -162 61 -228 128 -50 51 -127
162 -127 184 0 4 63 8 139 8 113 0 152 4 207 21 83 25 208 89 248 125 26 24
28 32 23 78 -12 135 -103 260 -222 305 -59 23 -203 37 -250 25z m-35 -116 c66
-45 117 -174 135 -336 l7 -63 -138 3 -139 3 -18 65 c-26 89 -28 243 -4 287 35
65 97 81 157 41z"/>
<path d="M5450 5874 c-130 -34 -271 -123 -371 -232 -84 -91 -214 -301 -197
-317 5 -6 369 94 380 104 4 4 1 40 -8 81 -20 94 -15 181 13 218 47 63 131 49
176 -30 33 -57 46 -108 49 -196 l3 -72 -120 -53 c-272 -121 -391 -205 -441
-312 -28 -59 -32 -163 -10 -216 45 -108 184 -155 326 -113 43 13 67 29 120 82
36 37 81 96 100 132 l35 65 6 -90 c6 -98 15 -128 49 -163 65 -69 177 -52 267
40 42 44 183 236 183 250 0 15 -24 8 -88 -27 -35 -20 -66 -34 -68 -33 -2 2 3
127 11 278 15 315 10 404 -31 487 -29 60 -74 96 -150 119 -60 18 -163 17 -234
-2z m14 -831 c-34 -44 -103 -77 -136 -64 -45 17 -63 49 -63 111 1 51 6 66 38
113 21 30 70 81 110 112 l72 58 3 -148 c3 -146 2 -148 -24 -182z"/>
<path d="M6410 5857 c-113 -39 -191 -88 -261 -165 -134 -146 -181 -384 -117
-591 29 -94 50 -131 113 -199 100 -108 227 -168 380 -179 96 -7 123 4 237 96
90 74 244 228 235 237 -3 3 -40 -6 -81 -21 -221 -81 -432 35 -566 310 -48 97
-80 214 -80 287 0 142 98 205 190 121 64 -57 150 -259 150 -351 0 -11 4 -23 8
-26 5 -3 88 63 185 145 l177 150 -17 31 c-24 41 -98 105 -154 133 -125 64
-256 71 -399 22z"/>
<path d="M8143 5875 c-89 -24 -193 -83 -260 -148 -79 -76 -118 -137 -151 -235
-22 -66 -26 -95 -26 -202 0 -111 3 -134 27 -203 35 -100 79 -169 150 -234 135
-123 318 -163 485 -107 108 36 177 78 253 153 110 110 159 238 159 416 0 118
-17 192 -65 292 -102 208 -354 326 -572 268z m-4 -100 c67 -34 144 -159 221
-356 111 -286 148 -521 89 -580 -44 -44 -127 -10 -192 78 -129 178 -277 636
-252 784 14 80 67 109 134 74z"/>
</g>
</svg>
